<svg width="25" height="19" viewBox="0 0 25 19" fill="none" xmlns="http://www.w3.org/2000/svg">
<path d="M0.892857 3.4898H24.1071C24.6003 3.4898 25 3.14261 25 2.71429V0.77551C25 0.347186 24.6003 0 24.1071 0H0.892857C0.399721 0 0 0.347186 0 0.77551V2.71429C0 3.14261 0.399721 3.4898 0.892857 3.4898ZM0.892857 11.2449H24.1071C24.6003 11.2449 25 10.8977 25 10.4694V8.53061C25 8.10229 24.6003 7.7551 24.1071 7.7551H0.892857C0.399721 7.7551 0 8.10229 0 8.53061V10.4694C0 10.8977 0.399721 11.2449 0.892857 11.2449ZM0.892857 19H24.1071C24.6003 19 25 18.6528 25 18.2245V16.2857C25 15.8574 24.6003 15.5102 24.1071 15.5102H0.892857C0.399721 15.5102 0 15.8574 0 16.2857V18.2245C0 18.6528 0.399721 19 0.892857 19Z" fill="#E5E5E5"/>
</svg>
